<svg width="740.47" height="164.5" xmlns="http://www.w3.org/2000/svg" xmlns:svg="http://www.w3.org/2000/svg">
 <defs>
  <style>.cls-1{fill:#f8f5f1;}.cls-2{fill:#9cc;}.cls-3{fill:#4d4d4d;}.cls-4{fill:#897373;}.cls-5{fill:#ff5757;}</style>
 </defs>
 <title>資產 5</title>
 <g class="layer">
  <title>Layer 1</title>
  <rect fill="#f7f1ea" height="166" id="svg_7" rx="13" ry="13" width="625" x="51.53" y="0.75"/>
  <g data-name="圖層 2" id="圖層_2">
   <g data-name="圖層 1" id="圖層_1-2">
    <rect class="cls-1" height="164.5" id="svg_1" rx="12" ry="12" transform="matrix(0.841903 0 0 1 19.9937 0)" width="740.47" x="38.2" y="-166">EN</rect>
    <rect class="cls-2" height="45.63" id="svg_2" transform="matrix(0.897155 0 0 0.43313 -10.0314 57.7073)" width="45.63" x="289.61" y="102.8">EN</rect>
    <path class="cls-3" d="m259,140.15l-8.93,-4.8a32.06,32.06 0 0 1 -13.61,-14q-4.69,-9.19 -4.69,-22.2l0,-30.15q0,-13 4.69,-22.2a32.31,32.31 0 0 1 13.61,-14q8.93,-4.83 21.48,-4.84a38.07,38.07 0 0 1 18.53,4.46a36.62,36.62 0 0 1 13.5,13a56.06,56.06 0 0 1 7.37,20.54l-21.51,0a27.73,27.73 0 0 0 -3.74,-9.31a17.9,17.9 0 0 0 -6.13,-5.89a16,16 0 0 0 -8,-2a19.37,19.37 0 0 0 -9.96,2.24a15.39,15.39 0 0 0 -6.24,7a25.8,25.8 0 0 0 -2.15,11l0,30.16a25.52,25.52 0 0 0 2.15,11a15.52,15.52 0 0 0 6.24,6.92a19.47,19.47 0 0 0 9.91,2.38a16.6,16.6 0 0 0 8.17,-2a17.09,17.09 0 0 0 6.12,-5.86a26.9,26.9 0 0 0 3.63,-9.37l21.48,0a56.78,56.78 0 0 1 -7.45,20.53a36.6,36.6 0 0 1 -13.46,13a37.83,37.83 0 0 1 -18.49,4.46l-12.52,-0.07z" id="svg_3">EN</path>
    <path class="cls-3" d="m328.31,29.06l20.69,0l0,109.94l-20.69,0l0,-109.94zm9.61,45.45l64.08,0l0,20l-64.08,0l0,-20zm50.59,-45.45l20.72,0l0,109.94l-20.72,0l0,-109.94z" id="svg_4"/>
    <path class="cls-3" d="m533.41,29.06l25.33,0l40.91,84.24l-1.81,2l0,-86.24l19.81,0l0,109.88l-25.48,0l-40.76,-82.94l1.81,-2l0,84.93l-19.81,0l0,-109.87z" id="svg_6"/>
    <rect class="cls-4" height="114.13" id="svg_8" width="33.53" x="89.38" y="31.15">Ｃㄘ</rect>
    <circle class="cls-5" cx="169.05" cy="57.79" id="svg_9" r="27.4"/>
    <rect class="cls-2" height="49.35" id="svg_10" rx="7.5" ry="7.5" width="49.35" x="144.37" y="95.46"/>
    <circle class="cls-5" cx="650.65" cy="127.13" id="svg_11" r="14.18"/>
    <rect class="cls-4" height="109.96" id="svg_12" width="20.75" x="328.24" y="29.06"/>
    <text fill="#4d4d4d" font-family="Helvetica" font-size="150" font-weight="bold" id="svg_14" letter-spacing="10" stroke-width="0" text-anchor="middle" transform="matrix(0.876908 0 0 1 20.0686 0)" x="516.54" xml:space="preserve" y="137.75">E</text>
    <rect height="0" id="svg_5" width="0" x="50.53" y="32.75"/>
   </g>
  </g>
 </g>
</svg>